<svg id="Слой_1" xmlns="http://www.w3.org/2000/svg" viewBox="0 0 632.976 484.157"><style>.st0{fill:#4d4d4d}.st1{fill:url(#SVGID_1_)}.st2{fill:#2b9002}.st3{fill:#9d9e9e}.st4{fill:#c5c6c6}</style><path class="st0" d="M81.099 245.565c-3.997 27.383-42.321 33.165-53.546 6.746-9.609-22.677 11.962-42.52 29.991-38.665 10.261 2.211 19.956-20.608 10.715-23.471C34.866 179.887-.057 205.795 0 241.455c.085 37.956 38.948 63.95 74.211 48.983 17.518-7.427 28.176-21.997 31.776-40.479 2.098-10.8-24.151-13.209-24.888-4.394zm79.285-.198l-2.438-28.857 28.29-2.608c8.334-.765 15.194 5.754 15.987 14.797.539 6.094-6.86 13.748-13.436 14.287l-28.403 2.381zm-5.697-65.962c7.03-.737 13.38-2.268 19.247.709 11.509 5.754-1.049 14.343-8.022 14.882l-9.865.709-1.36-16.3zm49.237 14.116c6.435-22.139-16.157-36.454-34.016-34.866l-40.082 3.487c-3.26.283-6.463 3.855-6.236 6.69l8.391 95.726c.17 2.126 3.231 3.827 6.066 3.572l59.641-5.216c7.455-.652 15.534-5.443 20.976-10.942 7.427-7.512 10.715-16.044 9.865-25.568-1.445-16.64-8.844-29.141-24.605-32.883zm98.079 42.945c-25.285-1.757-35.093-32.995-16.498-49.181 18.624-16.157 48.189-2.098 46.403 23.159-1.076 15.676-14.343 27.128-29.905 26.022zm5.67-81.156c-47.254-3.317-75.061 52.413-43.965 88.186 31.068 35.773 90.142 15.959 93.43-31.294 2.068-29.339-20.127-54.851-49.465-56.892zm195.392 49.408c-5.414-5.131-20.92-10.97-25.767-5.924l-64.403 43.058 22.45-58.479c2.126-5.528-14.23-14.031-23.017-13.493-3.317.198-5.272 1.02-5.811 2.438l-33.591 87.505c-2.58 6.746 21.94 17.915 28.375 11.764l65.452-45.694-23.414 60.973c-2.183 5.669 14.513 14.031 23.017 13.521 3.317-.227 5.272-1.049 5.811-2.466l33.591-87.506c.566-1.53-.312-3.429-2.693-5.697z"/><linearGradient id="SVGID_1_" gradientUnits="userSpaceOnUse" x1="13771.433" y1="-19368.746" x2="1263.853" y2="-19452.949" gradientTransform="matrix(.0283 0 0 -.0283 18.018 -159.756)"><stop offset="0" stop-color="#626666"/><stop offset="1" stop-color="#c5c6c6"/></linearGradient><path class="st1" d="M501.874 298.148c0 48.501-111.146 87.817-248.258 87.817S5.358 346.649 5.358 298.148c0 0-5.584 61.483 110.948 121.351 0 0 33.335 19.757 42.123 44.702 0 0 24.746 19.956 95.187 19.956s95.187-19.956 95.187-19.956c8.787-24.945 42.094-44.702 42.094-44.702 116.561-59.867 110.977-121.351 110.977-121.351z"/><path class="st2" d="M253.616 386.334c103.521.113 205.88-27.468 242.249-89.943 3.798-1.701 5.641-.369 5.783 2.013 4.649 82.658-195.732 110.324-248.372 110.154-126.624-.199-251.207-47.651-247.692-110.155.142-2.381 1.984-3.713 5.754-2.013 36.398 62.476 138.757 90.057 242.278 89.944z"/><path class="st2" d="M133.512 342.198l3.458-19.304 18.964 3.26c7.512 1.276 12.132 12.472 3.6 17.773-2.466 1.531-4.819 2.098-7.03 1.701l-18.992-3.43zm7.852-44.163c4.706.765 9.128.879 12.472 3.855 6.491 5.783-3.203 9.184-7.88 8.334l-6.576-1.276 1.984-10.913zm29.707 17.886c8.107-13.38-4.167-26.674-16.129-28.8l-26.844-4.734c-2.183-.368-4.904 1.417-5.244 3.288l-11.31 64.12c-.227 1.389 1.474 3.061 3.373 3.402l39.912 7.03c10.035 1.757 24.35-5.811 26.589-18.482 1.984-11.14-.681-20.608-10.347-25.824zm76.904-14.031c.227-6.746-20.154-7.937-20.409-.709-.51 14.457-1.956 19.049-18.34 18.482v.028h-.057l.68-19.474c.198-5.499-20.636-6.151-20.835-.737l-2.211 63.354c-.198 5.471 20.665 6.094 20.835.737.085-2.098.425-11.764 1.077-29.027 18.935.68 17.405 8.22 16.696 28.176-.255 7.257 20.183 7.455 20.409.709l.624-17.83c.255-7.228-9.411-14.825-15.732-17.745 6.151-2.353 16.611-7.654 16.838-13.918l.425-12.046zm69.675-3.005c-.198-5.556-21.033-4.677-20.835.709l.822 23.953c-18.737.68-21.77 1.389-22.564-21.94-.255-6.917-21.203-6.208-20.976.737l.567 16.214c.765 21.288 23.613 23.187 43.597 22.479.198 6.151-2.268 8.816-8.334 10.063-2.013.425-12.132.935-30.331 1.587-4.932.17-4.876 15.732.539 15.534 22.734-.794 36.198-1.757 40.422-2.92 12.841-3.572 18.822-11.849 18.539-25.483-.028-.114-.482-13.749-1.446-40.933zm60.69 32.202c-6.831 17.461-32.995 15.42-36.368-3.713-2.891-16.441 14.372-26.249 25.682-20.948 6.435 3.005 16.328-10.573 10.658-13.861-25.569-14.854-58.564 7.313-53.206 37.786 6.009 34.072 53.518 42.151 68.995 7.427 3.033-6.833-13.918-12.389-15.761-6.691z"/><path class="st3" d="M453.147 177.732s10.998-35.235 69.137-48.898c58.167-13.663 65.282-14.372 107.518-73.729 0 0 14.372 62.391-36.057 93.118-50.428 30.757-83.084 3.374-140.598 29.509z"/><path class="st2" d="M465.846 147.657c44.05-41.839 109.361-8.929 161.008-103.635-.964-6.916-3.033-27.411-16.13-44.022-43.2 106.072-125.546 40.252-144.878 147.657z"/><path class="st4" d="M453.118 183.118c65.509-29.14 136.828 16.668 179.858-68.23-28.034 133.739-113.669 63.241-179.858 68.23z"/><path class="st0" d="M555.222 483.732c-25.455 0-35.093-4.507-35.093-4.507-6.35-1.701-1.701-8.504-1.701-8.504 27.468-3.118 29.452-15.279 30.586-32.003 1.134-16.696-2.835-34.243-2.835-34.243-54.368-27.184-21.515-107.575-21.515-107.575 14.343-2.58 46.772-2.58 61.143 0 0 0 32.825 80.391-21.515 107.575 0 0-3.969 17.546-2.835 34.243 1.134 16.724 3.118 28.885 30.586 32.003 0 0 4.649 6.803-1.701 8.504.001 0-9.636 4.507-35.12 4.507z"/></svg>